<?xml version="1.0" encoding="UTF-8" standalone="yes"?><svg xmlns="http://www.w3.org/2000/svg" xmlns:xlink="http://www.w3.org/1999/xlink" height="1480pt" style="width:1340px;height:1480px;" version="1.1" viewBox="0 0 1340 1480" width="1340pt"><defs><filter height="300%" id="f1" width="300%" x="-1" y="-1"><feGaussianBlur result="blurOut" stdDeviation="2.0"/><feColorMatrix in="blurOut" result="blurOut2" type="matrix" values="0 0 0 0 0 0 0 0 0 0 0 0 0 0 0 0 0 0 .4 0"/><feOffset dx="4.0" dy="4.0" in="blurOut2" result="blurOut3"/><feBlend in="SourceGraphic" in2="blurOut3" mode="normal"/></filter></defs><g><rect fill="#FEFECE" filter="url(#f1)" height="769" rx="12.5" ry="12.5" style="stroke: #A80036; stroke-width: 1.5;" width="628" x="276" y="84"/><rect fill="#FFFFFF" height="679.7139" rx="12.5" ry="12.5" style="stroke: #FFFFFF; stroke-width: 1.0;" width="622" x="279" y="170.2861"/><line style="stroke: #A80036; stroke-width: 1.5;" x1="276" x2="904" y1="167.2861" y2="167.2861"/><line style="stroke: #A80036; stroke-width: 1.5;" x1="276" x2="904" y1="113.1201" y2="113.1201"/><text fill="#000000" font-family="sans-serif" font-size="14" lengthAdjust="spacingAndGlyphs" textLength="41" x="467" y="104.0439">Offline</text><text fill="#000000" font-family="sans-serif" font-size="12" lengthAdjust="spacingAndGlyphs" textLength="182" x="281" y="129.3721">EntryAction: Show Signin Window</text><text fill="#000000" font-family="sans-serif" font-size="12" lengthAdjust="spacingAndGlyphs" textLength="169" x="281" y="145.7607">ExitAction: Hide Signin Window</text><text fill="#000000" font-family="sans-serif" font-size="12" lengthAdjust="spacingAndGlyphs" textLength="245" x="281" y="162.1494">Reset Roster Items(not including Myself info)</text><rect fill="#FEFECE" filter="url(#f1)" height="382" rx="12.5" ry="12.5" style="stroke: #A80036; stroke-width: 1.5;" width="306" x="558" y="431"/><rect fill="#FFFFFF" height="325.4912" rx="12.5" ry="12.5" style="stroke: #FFFFFF; stroke-width: 1.0;" width="300" x="561" y="484.5088"/><line style="stroke: #A80036; stroke-width: 1.5;" x1="558" x2="864" y1="481.5088" y2="481.5088"/><line style="stroke: #A80036; stroke-width: 1.5;" x1="558" x2="864" y1="460.1201" y2="460.1201"/><text fill="#000000" font-family="sans-serif" font-size="14" lengthAdjust="spacingAndGlyphs" textLength="58" x="636" y="451.0439">SigningIn</text><text fill="#000000" font-family="sans-serif" font-size="12" lengthAdjust="spacingAndGlyphs" textLength="149" x="563" y="476.3721">Initialize Socket, Set HWND</text><rect fill="#FEFECE" filter="url(#f1)" height="552" rx="12.5" ry="12.5" style="stroke: #A80036; stroke-width: 1.5;" width="1026" x="30" y="921"/><rect fill="#FFFFFF" height="462.7139" rx="12.5" ry="12.5" style="stroke: #FFFFFF; stroke-width: 1.0;" width="1020" x="33" y="1007.2861"/><line style="stroke: #A80036; stroke-width: 1.5;" x1="30" x2="1056" y1="1004.2861" y2="1004.2861"/><line style="stroke: #A80036; stroke-width: 1.5;" x1="30" x2="1056" y1="950.1201" y2="950.1201"/><text fill="#000000" font-family="sans-serif" font-size="14" lengthAdjust="spacingAndGlyphs" textLength="41" x="388" y="941.0439">Online</text><text fill="#000000" font-family="sans-serif" font-size="12" lengthAdjust="spacingAndGlyphs" textLength="232" x="35" y="966.3721">EntryAction: Show MainWindow, SetHWND</text><text fill="#000000" font-family="sans-serif" font-size="12" lengthAdjust="spacingAndGlyphs" textLength="271" x="35" y="982.7607">ExitAction:  Hide MainWindow, chatWindow if have</text><text fill="#000000" font-family="sans-serif" font-size="12" lengthAdjust="spacingAndGlyphs" textLength="309" x="35" y="999.1494">ExitAction:  Save User Profile(including Message History)</text><ellipse cx="415" cy="195" fill="#000000" filter="url(#f1)" rx="10" ry="10" style="stroke: none; stroke-width: 1.0;"/><rect fill="#FEFECE" filter="url(#f1)" height="71.8975" rx="12.5" ry="12.5" style="stroke: #A80036; stroke-width: 1.5;" width="148" x="341" y="267"/><line style="stroke: #A80036; stroke-width: 1.5;" x1="341" x2="489" y1="296.1201" y2="296.1201"/><text fill="#000000" font-family="sans-serif" font-size="14" lengthAdjust="spacingAndGlyphs" textLength="22" x="404" y="288.0439">Idle</text><text fill="#000000" font-family="sans-serif" font-size="12" lengthAdjust="spacingAndGlyphs" textLength="96" x="346" y="314.8721">Load User Profile</text><text fill="#000000" font-family="sans-serif" font-size="12" lengthAdjust="spacingAndGlyphs" textLength="128" x="346" y="331.2607">Waiting For User Action</text><rect fill="#FEFECE" filter="url(#f1)" height="50" rx="12.5" ry="12.5" style="stroke: #A80036; stroke-width: 1.5;" width="83" x="764.75" y="278"/><line style="stroke: #A80036; stroke-width: 1.5;" x1="764.75" x2="847.75" y1="307.1201" y2="307.1201"/><text fill="#000000" font-family="sans-serif" font-size="14" lengthAdjust="spacingAndGlyphs" textLength="63" x="774.75" y="299.0439">SignedOff</text><ellipse cx="715" cy="509" fill="#000000" filter="url(#f1)" rx="10" ry="10" style="stroke: none; stroke-width: 1.0;"/><rect fill="#FEFECE" filter="url(#f1)" height="71.8975" rx="12.5" ry="12.5" style="stroke: #A80036; stroke-width: 1.5;" width="249" x="590.75" y="581"/><line style="stroke: #A80036; stroke-width: 1.5;" x1="590.75" x2="839.75" y1="610.1201" y2="610.1201"/><text fill="#000000" font-family="sans-serif" font-size="14" lengthAdjust="spacingAndGlyphs" textLength="79" x="675.75" y="602.0439">Authenticate</text><text fill="#000000" font-family="sans-serif" font-size="12" lengthAdjust="spacingAndGlyphs" textLength="229" x="595.75" y="628.8721">EntryAction Send im::AuthenticateRequest</text><text fill="#000000" font-family="sans-serif" font-size="12" lengthAdjust="spacingAndGlyphs" textLength="32" x="595.75" y="645.2607">SSO?</text><rect fill="#FEFECE" filter="url(#f1)" height="55.5088" rx="12.5" ry="12.5" style="stroke: #A80036; stroke-width: 1.5;" width="195" x="603.75" y="733"/><line style="stroke: #A80036; stroke-width: 1.5;" x1="603.75" x2="798.75" y1="762.1201" y2="762.1201"/><text fill="#000000" font-family="sans-serif" font-size="14" lengthAdjust="spacingAndGlyphs" textLength="42" x="680.25" y="754.0439">Roster</text><text fill="#000000" font-family="sans-serif" font-size="12" lengthAdjust="spacingAndGlyphs" textLength="175" x="608.75" y="780.8721">EntryAction Send im::RosterReq</text><ellipse cx="382" cy="1032" fill="#000000" filter="url(#f1)" rx="10" ry="10" style="stroke: none; stroke-width: 1.0;"/><rect fill="#FEFECE" filter="url(#f1)" height="320.8975" rx="12.5" ry="12.5" style="stroke: #A80036; stroke-width: 1.5;" width="574" x="54" y="1127.5"/><rect fill="#FFFFFF" height="248" rx="12.5" ry="12.5" style="stroke: #FFFFFF; stroke-width: 1.0;" width="568" x="57" y="1197.3975"/><line style="stroke: #A80036; stroke-width: 1.5;" x1="54" x2="628" y1="1194.3975" y2="1194.3975"/><line style="stroke: #A80036; stroke-width: 1.5;" x1="54" x2="628" y1="1156.6201" y2="1156.6201"/><text fill="#000000" font-family="sans-serif" font-size="14" lengthAdjust="spacingAndGlyphs" textLength="62" x="310" y="1148.5439">Heartbeat</text><text fill="#000000" font-family="sans-serif" font-size="12" lengthAdjust="spacingAndGlyphs" textLength="202" x="59" y="1170.3721">ExitAction: Send im::Presense Offline</text><text fill="#000000" font-family="sans-serif" font-size="12" lengthAdjust="spacingAndGlyphs" textLength="152" x="59" y="1186.7607">EntryAction: Send Heartbeat</text><ellipse cx="194.537" cy="1217.3975" fill="#000000" filter="url(#f1)" rx="10" ry="10" style="stroke: none; stroke-width: 1.0;"/><rect fill="#FEFECE" filter="url(#f1)" height="55.5088" rx="12.5" ry="12.5" style="stroke: #A80036; stroke-width: 1.5;" width="230" x="79.5367" y="1265.3975"/><line style="stroke: #A80036; stroke-width: 1.5;" x1="79.5367" x2="309.5367" y1="1294.5176" y2="1294.5176"/><text fill="#000000" font-family="sans-serif" font-size="14" lengthAdjust="spacingAndGlyphs" textLength="57" x="166.0367" y="1286.4414">Available</text><text fill="#000000" font-family="sans-serif" font-size="12" lengthAdjust="spacingAndGlyphs" textLength="210" x="84.5367" y="1313.2695">EntryAction: Send im::Presence Online</text><rect fill="#FEFECE" filter="url(#f1)" height="55.5088" rx="12.5" ry="12.5" style="stroke: #A80036; stroke-width: 1.5;" width="222" x="83.5367" y="1377.3975"/><line style="stroke: #A80036; stroke-width: 1.5;" x1="83.5367" x2="305.5367" y1="1406.5176" y2="1406.5176"/><text fill="#000000" font-family="sans-serif" font-size="14" lengthAdjust="spacingAndGlyphs" textLength="33" x="178.0367" y="1398.4414">Away</text><text fill="#000000" font-family="sans-serif" font-size="12" lengthAdjust="spacingAndGlyphs" textLength="202" x="88.5367" y="1425.2695">EntryAction: Send im::Presence Away</text><path d="M194.537,1227.4715 C194.537,1235.7115 194.537,1248.3685 194.537,1260.3265 " fill="none" style="stroke: #A80036; stroke-width: 1.0;"/><polygon fill="#A80036" points="194.537,1265.3935,198.537,1256.3935,194.537,1260.3935,190.537,1256.3935,194.537,1265.3935" style="stroke: #A80036; stroke-width: 1.0;"/><path d="M83.7752,1321.5675 C67.4,1331.0015 59.3063,1343.3749 70.5367,1359.3975 C74.4647,1365.0016 79.1653,1369.9106 84.4045,1374.2103 " fill="none" style="stroke: #A80036; stroke-width: 1.0;"/><polygon fill="#A80036" points="88.5121,1377.3809,83.8318,1368.7151,84.5541,1374.3257,78.9435,1375.048,88.5121,1377.3809" style="stroke: #A80036; stroke-width: 1.0;"/><text fill="#000000" font-family="sans-serif" font-size="13" lengthAdjust="spacingAndGlyphs" textLength="225" x="71.5367" y="1355.2954">Computer Idle detected, or user Trigger</text><path d="M283.409,1377.392 C299.75,1367.6323 308.824,1355.0578 298.537,1339.3975 C294.922,1333.8943 290.474,1329.0605 285.474,1324.8165 " fill="none" style="stroke: #A80036; stroke-width: 1.0;"/><polygon fill="#A80036" points="281.547,1321.6835,286.0874,1330.4233,285.4554,1324.8019,291.0768,1324.1699,281.547,1321.6835" style="stroke: #A80036; stroke-width: 1.0;"/><text fill="#000000" font-family="sans-serif" font-size="13" lengthAdjust="spacingAndGlyphs" textLength="284" x="303.537" y="1355.2954">Keyboard Mounse event detected, or user Trigger</text><ellipse cx="284" cy="18" fill="#000000" filter="url(#f1)" rx="10" ry="10" style="stroke: none; stroke-width: 1.0;"/><ellipse cx="1090" cy="1288" fill="none" filter="url(#f1)" rx="10" ry="10" style="stroke: #000000; stroke-width: 1.0;"/><ellipse cx="1090.5" cy="1288.5" fill="#000000" rx="6" ry="6" style="stroke: none; stroke-width: 1.0;"/><path d="M284,28.41 C284,39.12 284,57.88 284,79.03 " fill="none" style="stroke: #A80036; stroke-width: 1.0;"/><polygon fill="#A80036" points="284,84.16,288,75.16,284,79.16,280,75.16,284,84.16" style="stroke: #A80036; stroke-width: 1.0;"/><path d="M415,205.04 C415,217.5 415,240.76 415,261.38 " fill="none" style="stroke: #A80036; stroke-width: 1.0;"/><polygon fill="#A80036" points="415,266.55,419,257.55,415,261.55,411,257.55,415,266.55" style="stroke: #A80036; stroke-width: 1.0;"/><path d="M426.624,339.2 C436.273,362.52 452.441,391.56 477,407 C493.06,417.1 548.93,401.25 562,415 C564.225,417.34 565.853,421.22 567.015,426.1 " fill="none" style="stroke: #A80036; stroke-width: 1.0;"/><polygon fill="#A80036" points="568.028,431.28,570.231,421.6807,567.0708,426.3725,562.379,423.2122,568.028,431.28" style="stroke: #A80036; stroke-width: 1.0;"/><text fill="#000000" font-family="sans-serif" font-size="13" lengthAdjust="spacingAndGlyphs" textLength="116" x="496" y="384.8979">Auto Signin enabled</text><text fill="#000000" font-family="sans-serif" font-size="13" lengthAdjust="spacingAndGlyphs" textLength="152" x="482" y="402.6523">Or user clicked the Button</text><path d="M776.259,328.09 C744.542,352.37 691.836,388.78 640,407 C626.062,411.9 584.263,404.37 574,415 C571.688,417.39 569.912,421.41 568.559,426.48 " fill="none" style="stroke: #A80036; stroke-width: 1.0;"/><polygon fill="#A80036" points="567.433,431.4,573.3381,423.5178,568.5473,426.5257,565.5393,421.7349,567.433,431.4" style="stroke: #A80036; stroke-width: 1.0;"/><text fill="#000000" font-family="sans-serif" font-size="13" lengthAdjust="spacingAndGlyphs" textLength="154" x="718" y="393.8979">User clicked Signin Button</text><path d="M715,519.038 C715,531.499 715,554.76 715,575.376 " fill="none" style="stroke: #A80036; stroke-width: 1.0;"/><polygon fill="#A80036" points="715,580.552,719,571.552,715,575.552,711,571.552,715,580.552" style="stroke: #A80036; stroke-width: 1.0;"/><path d="M711.539,653.101 C709.29,675.911 706.38,705.43 704.188,727.667 " fill="none" style="stroke: #A80036; stroke-width: 1.0;"/><polygon fill="#A80036" points="703.675,732.868,708.5378,724.3033,704.165,727.8921,700.5763,723.5193,703.675,732.868" style="stroke: #A80036; stroke-width: 1.0;"/><text fill="#000000" font-family="sans-serif" font-size="13" lengthAdjust="spacingAndGlyphs" textLength="176" x="710" y="698.8979">im::AuthenticateResponse OK</text><path d="M387.174,343.67 C358.347,390.14 322.602,467.32 362,519 C390.079,555.835 500.608,582.169 590.601,598.019 " fill="none" style="stroke: #A80036; stroke-width: 1.0;"/><polygon fill="#A80036" points="389.94,339.28,381.7672,344.7759,387.2817,343.5148,388.5428,349.0292,389.94,339.28" style="stroke: #A80036; stroke-width: 1.0;"/><text fill="#000000" font-family="sans-serif" font-size="13" lengthAdjust="spacingAndGlyphs" textLength="185" x="363" y="514.8979">im::AuthenticateResponse NOK</text><path d="M378.74,1041.639 C375.549,1050.421 370.773,1064.477 368,1077 C364.769,1091.59 361.883,1106.843 359.314,1122.179 " fill="none" style="stroke: #A80036; stroke-width: 1.0;"/><polygon fill="#A80036" points="358.455,1127.382,363.8674,1119.1537,359.2693,1122.4488,355.9742,1117.8507,358.455,1127.382" style="stroke: #A80036; stroke-width: 1.0;"/><path d="M628.036,1259.948 C649.688,1266.198 663,1275.549 663,1288 C663,1299.478 651.687,1308.322 632.956,1314.53 " fill="none" style="stroke: #A80036; stroke-width: 1.0;"/><polygon fill="#A80036" points="628.036,1316.052,637.816,1317.2148,632.8129,1314.5749,635.4527,1309.5718,628.036,1316.052" style="stroke: #A80036; stroke-width: 1.0;"/><text fill="#000000" font-family="sans-serif" font-size="13" lengthAdjust="spacingAndGlyphs" textLength="79" x="669" y="1293.8979">HeartbeatAck</text><path d="M553.995,525.991 C468.489,593.644 319,503.319 319,616 C319,616 319,616 319,1033 C319,1063.541 320.598,1096.071 322.933,1127.299 " fill="none" style="stroke: #A80036; stroke-width: 1.0;"/><polygon fill="#A80036" points="558.018,522.649,548.5395,525.3246,554.1724,525.8446,553.6525,531.4775,558.018,522.649" style="stroke: #A80036; stroke-width: 1.0;"/><text fill="#000000" font-family="sans-serif" font-size="13" lengthAdjust="spacingAndGlyphs" textLength="129" x="320" y="766.8979">HeartbeatAck Timeout</text><path d="M713.822,789.235 C726.468,817.492 745.148,863.302 754,905 C754.761,908.583 755.456,912.236 756.092,915.933 " fill="none" style="stroke: #A80036; stroke-width: 1.0;"/><polygon fill="#A80036" points="756.922,921.001,759.4166,911.4733,756.1148,916.0666,751.5216,912.7648,756.922,921.001" style="stroke: #A80036; stroke-width: 1.0;"/><text fill="#000000" font-family="sans-serif" font-size="13" lengthAdjust="spacingAndGlyphs" textLength="90" x="754" y="892.8979">im::RosterResp</text><path d="M1062,1031.689 C1073.835,1025.252 1096.445,1025.355 1096.445,1032 C1096.445,1037.814 1079.134,1038.62 1066.878,1034.419 " fill="none" style="stroke: #A80036; stroke-width: 1.0;"/><polygon fill="#A80036" points="1062,1032.311,1068.6757,1039.5522,1066.59,1034.2939,1071.8483,1032.2081,1062,1032.311" style="stroke: #A80036; stroke-width: 1.0;"/><text fill="#000000" font-family="sans-serif" font-size="13" lengthAdjust="spacingAndGlyphs" textLength="122" x="1102.445" y="1037.8979">p2p::JingleMessaage</text><path d="M1062,1031.571 C1086.198,995.251 1231.721,995.394 1231.721,1032 C1231.721,1067.177 1097.345,1068.683 1065.375,1036.518 " fill="none" style="stroke: #A80036; stroke-width: 1.0;"/><polygon fill="#A80036" points="1062,1032.429,1064.6447,1041.9161,1065.183,1036.2849,1070.8142,1036.8233,1062,1032.429" style="stroke: #A80036; stroke-width: 1.0;"/><text fill="#000000" font-family="sans-serif" font-size="13" lengthAdjust="spacingAndGlyphs" textLength="102" x="1237.721" y="1037.8979">im::ChatMessage</text><path d="M846.589,331.44 C859.474,341.88 872.758,354.74 882,369 C917.03,423.05 923,443.59 923,508 C923,508 923,508 923,762 C923,819.595 895.49,875.538 863.214,921.354 " fill="none" style="stroke: #A80036; stroke-width: 1.0;"/><polygon fill="#A80036" points="842.608,328.28,847.1663,337.0105,846.5228,331.3904,852.1429,330.7469,842.608,328.28" style="stroke: #A80036; stroke-width: 1.0;"/><text fill="#000000" font-family="sans-serif" font-size="13" lengthAdjust="spacingAndGlyphs" textLength="39" x="924" y="622.8979">Signoff</text><path d="M1055.97,1260.651 C1064.97,1267.615 1072.51,1273.457 1078.19,1277.856 " fill="none" style="stroke: #A80036; stroke-width: 1.0;"/><polygon fill="#A80036" points="1082.33,1281.063,1077.6579,1272.3929,1078.3749,1278.0041,1072.7636,1278.7211,1082.33,1281.063" style="stroke: #A80036; stroke-width: 1.0;"/><text fill="#000000" font-family="sans-serif" font-size="13" lengthAdjust="spacingAndGlyphs" textLength="164" x="842" y="1092.8979">User Close the MainWindow</text></g></svg>